<?xml version="1.0" encoding="UTF-8" standalone="no"?>
<!DOCTYPE svg PUBLIC "-//W3C//DTD SVG 1.1//EN"
 "http://www.w3.org/Graphics/SVG/1.1/DTD/svg11.dtd">
<!-- Generated by graphviz version 2.38.0 (20140413.2041)
 -->
<!-- Title: controllers_diagram Pages: 1 -->
<svg width="580pt" height="563pt"
 viewBox="0.00 0.00 579.51 563.00" xmlns="http://www.w3.org/2000/svg" xmlns:xlink="http://www.w3.org/1999/xlink">
<g id="graph0" class="graph" transform="scale(1 1) rotate(0) translate(163.688 287.5)">
<title>controllers_diagram</title>
<polygon fill="none" stroke="none" points="-163.688,275.5 -163.688,-287.5 415.821,-287.5 415.821,275.5 -163.688,275.5"/>
<!-- _diagram_info -->
<g id="node1" class="node"><title>_diagram_info</title>
<text text-anchor="start" x="-151.688" y="100.9" font-family="Times,serif" font-size="13.00">Controllers diagram</text>
<text text-anchor="start" x="-151.688" y="113.9" font-family="Times,serif" font-size="13.00">Date: Aug 01 2016 &#45; 20:13</text>
<text text-anchor="start" x="-151.688" y="126.9" font-family="Times,serif" font-size="13.00">Migration version: 20160802001028</text>
<text text-anchor="start" x="-151.688" y="139.9" font-family="Times,serif" font-size="13.00">Generated by RailRoady 1.5.1</text>
<text text-anchor="start" x="-151.688" y="152.9" font-family="Times,serif" font-size="13.00">http://railroady.prestonlee.com</text>
</g>
<!-- ApplicationController -->
<g id="node2" class="node"><title>ApplicationController</title>
<path fill="none" stroke="black" d="M284.179,271C284.179,271 399.821,271 399.821,271 405.821,271 411.821,265 411.821,259 411.821,259 411.821,191 411.821,191 411.821,185 405.821,179 399.821,179 399.821,179 284.179,179 284.179,179 278.179,179 272.179,185 272.179,191 272.179,191 272.179,259 272.179,259 272.179,265 278.179,271 284.179,271"/>
<text text-anchor="middle" x="342" y="194.2" font-family="Times,serif" font-size="14.00">ApplicationController</text>
<polyline fill="none" stroke="black" points="272.179,201 411.821,201 "/>
<polyline fill="none" stroke="black" points="272.179,225 411.821,225 "/>
<polyline fill="none" stroke="black" points="272.179,249 411.821,249 "/>
<text text-anchor="start" x="280.179" y="264.2" font-family="Times,serif" font-size="14.00">_layout</text>
</g>
<!-- SongsController -->
<g id="node3" class="node"><title>SongsController</title>
<path fill="none" stroke="black" d="M92.1104,-81C92.1104,-81 175.89,-81 175.89,-81 181.89,-81 187.89,-87 187.89,-93 187.89,-93 187.89,-271 187.89,-271 187.89,-277 181.89,-283 175.89,-283 175.89,-283 92.1104,-283 92.1104,-283 86.1104,-283 80.1104,-277 80.1104,-271 80.1104,-271 80.1104,-93 80.1104,-93 80.1104,-87 86.1104,-81 92.1104,-81"/>
<text text-anchor="middle" x="134" y="-267.8" font-family="Times,serif" font-size="14.00">SongsController</text>
<polyline fill="none" stroke="black" points="80.1104,-261 187.89,-261 "/>
<text text-anchor="start" x="88.1104" y="-245.8" font-family="Times,serif" font-size="14.00">index</text>
<text text-anchor="start" x="88.1104" y="-231.8" font-family="Times,serif" font-size="14.00">destroy</text>
<text text-anchor="start" x="88.1104" y="-217.8" font-family="Times,serif" font-size="14.00">edit</text>
<text text-anchor="start" x="88.1104" y="-203.8" font-family="Times,serif" font-size="14.00">create</text>
<text text-anchor="start" x="88.1104" y="-189.8" font-family="Times,serif" font-size="14.00">new</text>
<text text-anchor="start" x="88.1104" y="-175.8" font-family="Times,serif" font-size="14.00">show</text>
<text text-anchor="start" x="88.1104" y="-161.8" font-family="Times,serif" font-size="14.00">update</text>
<polyline fill="none" stroke="black" points="80.1104,-155 187.89,-155 "/>
<polyline fill="none" stroke="black" points="80.1104,-131 187.89,-131 "/>
<text text-anchor="start" x="88.1104" y="-115.8" font-family="Times,serif" font-size="14.00">_layout</text>
<text text-anchor="start" x="88.1104" y="-101.8" font-family="Times,serif" font-size="14.00">set_song</text>
<text text-anchor="start" x="88.1104" y="-87.8" font-family="Times,serif" font-size="14.00">song_params</text>
</g>
<!-- Users::ConfirmationsController -->
<g id="node4" class="node"><title>Users::ConfirmationsController</title>
<path fill="none" stroke="black" d="M-131.662,-145C-131.662,-145 37.6621,-145 37.6621,-145 43.6621,-145 49.6621,-151 49.6621,-157 49.6621,-157 49.6621,-225 49.6621,-225 49.6621,-231 43.6621,-237 37.6621,-237 37.6621,-237 -131.662,-237 -131.662,-237 -137.662,-237 -143.662,-231 -143.662,-225 -143.662,-225 -143.662,-157 -143.662,-157 -143.662,-151 -137.662,-145 -131.662,-145"/>
<text text-anchor="middle" x="-47" y="-221.8" font-family="Times,serif" font-size="14.00">Users::ConfirmationsController</text>
<polyline fill="none" stroke="black" points="-143.662,-215 49.6621,-215 "/>
<polyline fill="none" stroke="black" points="-143.662,-191 49.6621,-191 "/>
<polyline fill="none" stroke="black" points="-143.662,-167 49.6621,-167 "/>
<text text-anchor="start" x="-135.662" y="-151.8" font-family="Times,serif" font-size="14.00">_layout</text>
</g>
<!-- Users::OmniauthCallbacksController -->
<g id="node5" class="node"><title>Users::OmniauthCallbacksController</title>
<path fill="none" stroke="black" d="M-116.204,47C-116.204,47 84.2036,47 84.2036,47 90.2036,47 96.2036,41 96.2036,35 96.2036,35 96.2036,-33 96.2036,-33 96.2036,-39 90.2036,-45 84.2036,-45 84.2036,-45 -116.204,-45 -116.204,-45 -122.204,-45 -128.204,-39 -128.204,-33 -128.204,-33 -128.204,35 -128.204,35 -128.204,41 -122.204,47 -116.204,47"/>
<text text-anchor="middle" x="-16" y="-29.8" font-family="Times,serif" font-size="14.00">Users::OmniauthCallbacksController</text>
<polyline fill="none" stroke="black" points="-128.204,-23 96.2036,-23 "/>
<polyline fill="none" stroke="black" points="-128.204,1 96.2036,1 "/>
<polyline fill="none" stroke="black" points="-128.204,25 96.2036,25 "/>
<text text-anchor="start" x="-120.204" y="40.2" font-family="Times,serif" font-size="14.00">_layout</text>
</g>
<!-- Users::PasswordsController -->
<g id="node6" class="node"><title>Users::PasswordsController</title>
<path fill="none" stroke="black" d="M235.838,-17C235.838,-17 384.162,-17 384.162,-17 390.162,-17 396.162,-23 396.162,-29 396.162,-29 396.162,-97 396.162,-97 396.162,-103 390.162,-109 384.162,-109 384.162,-109 235.838,-109 235.838,-109 229.838,-109 223.838,-103 223.838,-97 223.838,-97 223.838,-29 223.838,-29 223.838,-23 229.838,-17 235.838,-17"/>
<text text-anchor="middle" x="310" y="-93.8" font-family="Times,serif" font-size="14.00">Users::PasswordsController</text>
<polyline fill="none" stroke="black" points="223.838,-87 396.162,-87 "/>
<polyline fill="none" stroke="black" points="223.838,-63 396.162,-63 "/>
<polyline fill="none" stroke="black" points="223.838,-39 396.162,-39 "/>
<text text-anchor="start" x="231.838" y="-23.8" font-family="Times,serif" font-size="14.00">_layout</text>
</g>
<!-- Users::RegistrationsController -->
<g id="node7" class="node"><title>Users::RegistrationsController</title>
<path fill="none" stroke="black" d="M140.455,127C140.455,127 303.545,127 303.545,127 309.545,127 315.545,121 315.545,115 315.545,115 315.545,35 315.545,35 315.545,29 309.545,23 303.545,23 303.545,23 140.455,23 140.455,23 134.455,23 128.455,29 128.455,35 128.455,35 128.455,115 128.455,115 128.455,121 134.455,127 140.455,127"/>
<text text-anchor="middle" x="222" y="38.2" font-family="Times,serif" font-size="14.00">Users::RegistrationsController</text>
<polyline fill="none" stroke="black" points="128.455,45 315.545,45 "/>
<text text-anchor="start" x="136.455" y="60.2" font-family="Times,serif" font-size="14.00">configure_sign_up_params</text>
<text text-anchor="start" x="136.455" y="74.2" font-family="Times,serif" font-size="14.00">create</text>
<polyline fill="none" stroke="black" points="128.455,81 315.545,81 "/>
<polyline fill="none" stroke="black" points="128.455,105 315.545,105 "/>
<text text-anchor="start" x="136.455" y="120.2" font-family="Times,serif" font-size="14.00">_layout</text>
</g>
<!-- Users::SessionsController -->
<g id="node8" class="node"><title>Users::SessionsController</title>
<path fill="none" stroke="black" d="M236.279,-145C236.279,-145 373.721,-145 373.721,-145 379.721,-145 385.721,-151 385.721,-157 385.721,-157 385.721,-225 385.721,-225 385.721,-231 379.721,-237 373.721,-237 373.721,-237 236.279,-237 236.279,-237 230.279,-237 224.279,-231 224.279,-225 224.279,-225 224.279,-157 224.279,-157 224.279,-151 230.279,-145 236.279,-145"/>
<text text-anchor="middle" x="305" y="-221.8" font-family="Times,serif" font-size="14.00">Users::SessionsController</text>
<polyline fill="none" stroke="black" points="224.279,-215 385.721,-215 "/>
<polyline fill="none" stroke="black" points="224.279,-191 385.721,-191 "/>
<polyline fill="none" stroke="black" points="224.279,-167 385.721,-167 "/>
<text text-anchor="start" x="232.279" y="-151.8" font-family="Times,serif" font-size="14.00">_layout</text>
</g>
<!-- Users::UnlocksController -->
<g id="node9" class="node"><title>Users::UnlocksController</title>
<path fill="none" stroke="black" d="M92.0654,255C92.0654,255 227.935,255 227.935,255 233.935,255 239.935,249 239.935,243 239.935,243 239.935,175 239.935,175 239.935,169 233.935,163 227.935,163 227.935,163 92.0654,163 92.0654,163 86.0654,163 80.0654,169 80.0654,175 80.0654,175 80.0654,243 80.0654,243 80.0654,249 86.0654,255 92.0654,255"/>
<text text-anchor="middle" x="160" y="178.2" font-family="Times,serif" font-size="14.00">Users::UnlocksController</text>
<polyline fill="none" stroke="black" points="80.0654,185 239.935,185 "/>
<polyline fill="none" stroke="black" points="80.0654,209 239.935,209 "/>
<polyline fill="none" stroke="black" points="80.0654,233 239.935,233 "/>
<text text-anchor="start" x="88.0654" y="248.2" font-family="Times,serif" font-size="14.00">_layout</text>
</g>
</g>
</svg>
