<?xml version="1.0" encoding="UTF-8" standalone="no"?>
<!DOCTYPE svg PUBLIC "-//W3C//DTD SVG 1.1//EN"
 "http://www.w3.org/Graphics/SVG/1.1/DTD/svg11.dtd">
<!-- Generated by graphviz version 2.38.0 (20140413.2041)
 -->
<!-- Title: models_diagram Pages: 1 -->
<svg width="482pt" height="660pt"
 viewBox="0.00 0.00 481.55 660.00" xmlns="http://www.w3.org/2000/svg" xmlns:xlink="http://www.w3.org/1999/xlink">
<g id="graph0" class="graph" transform="scale(1 1) rotate(0) translate(4 656)">
<title>models_diagram</title>
<polygon fill="none" stroke="none" points="-4,4 -4,-656 477.55,-656 477.55,4 -4,4"/>
<!-- _diagram_info -->
<g id="node1" class="node"><title>_diagram_info</title>
<text text-anchor="start" x="8" y="-630.6" font-family="Times,serif" font-size="13.00">Models diagram</text>
<text text-anchor="start" x="8" y="-617.6" font-family="Times,serif" font-size="13.00">Date: Aug 01 2016 &#45; 20:13</text>
<text text-anchor="start" x="8" y="-604.6" font-family="Times,serif" font-size="13.00">Migration version: 20160802001028</text>
<text text-anchor="start" x="8" y="-591.6" font-family="Times,serif" font-size="13.00">Generated by RailRoady 1.5.1</text>
<text text-anchor="start" x="8" y="-578.6" font-family="Times,serif" font-size="13.00">http://railroady.prestonlee.com</text>
</g>
<!-- Genre -->
<g id="node2" class="node"><title>Genre</title>
<path fill="none" stroke="black" d="M237.825,-565.5C237.825,-565.5 461.55,-565.5 461.55,-565.5 467.55,-565.5 473.55,-571.5 473.55,-577.5 473.55,-577.5 473.55,-639.5 473.55,-639.5 473.55,-645.5 467.55,-651.5 461.55,-651.5 461.55,-651.5 237.825,-651.5 237.825,-651.5 231.825,-651.5 225.825,-645.5 225.825,-639.5 225.825,-639.5 225.825,-577.5 225.825,-577.5 225.825,-571.5 231.825,-565.5 237.825,-565.5"/>
<text text-anchor="middle" x="349.688" y="-636.3" font-family="Times,serif" font-size="14.00">Genre</text>
<polyline fill="none" stroke="black" points="225.825,-629.5 473.55,-629.5 "/>
<text text-anchor="start" x="233.825" y="-614.3" font-family="Times,serif" font-size="14.00">id :integer</text>
<text text-anchor="start" x="233.825" y="-600.3" font-family="Times,serif" font-size="14.00">name :character varying</text>
<text text-anchor="start" x="233.825" y="-586.3" font-family="Times,serif" font-size="14.00">created_at :timestamp without time zone</text>
<text text-anchor="start" x="233.825" y="-572.3" font-family="Times,serif" font-size="14.00">updated_at :timestamp without time zone</text>
</g>
<!-- Song -->
<g id="node3" class="node"><title>Song</title>
<path fill="none" stroke="black" d="M237.825,-414.5C237.825,-414.5 461.55,-414.5 461.55,-414.5 467.55,-414.5 473.55,-420.5 473.55,-426.5 473.55,-426.5 473.55,-516.5 473.55,-516.5 473.55,-522.5 467.55,-528.5 461.55,-528.5 461.55,-528.5 237.825,-528.5 237.825,-528.5 231.825,-528.5 225.825,-522.5 225.825,-516.5 225.825,-516.5 225.825,-426.5 225.825,-426.5 225.825,-420.5 231.825,-414.5 237.825,-414.5"/>
<text text-anchor="middle" x="349.688" y="-513.3" font-family="Times,serif" font-size="14.00">Song</text>
<polyline fill="none" stroke="black" points="225.825,-506.5 473.55,-506.5 "/>
<text text-anchor="start" x="233.825" y="-491.3" font-family="Times,serif" font-size="14.00">id :integer</text>
<text text-anchor="start" x="233.825" y="-477.3" font-family="Times,serif" font-size="14.00">name :character varying</text>
<text text-anchor="start" x="233.825" y="-463.3" font-family="Times,serif" font-size="14.00">duration :integer</text>
<text text-anchor="start" x="233.825" y="-449.3" font-family="Times,serif" font-size="14.00">created_at :timestamp without time zone</text>
<text text-anchor="start" x="233.825" y="-435.3" font-family="Times,serif" font-size="14.00">updated_at :timestamp without time zone</text>
<text text-anchor="start" x="233.825" y="-421.3" font-family="Times,serif" font-size="14.00">genre_id :integer</text>
</g>
<!-- Genre&#45;&gt;Song -->
<g id="edge1" class="edge"><title>Genre&#45;&gt;Song</title>
<path fill="none" stroke="#0a0817" d="M349.688,-557.113C349.688,-551.149 349.688,-544.994 349.688,-538.852"/>
<ellipse fill="none" stroke="#0a0817" cx="349.688" cy="-561.156" rx="4" ry="4"/>
<polygon fill="#0a0817" stroke="#0a0817" points="349.688,-538.563 354.188,-528.563 349.688,-533.563 349.688,-528.563 349.688,-528.563 349.688,-528.563 349.688,-533.563 345.188,-528.563 349.688,-538.563 349.688,-538.563"/>
</g>
<!-- User -->
<g id="node4" class="node"><title>User</title>
<path fill="none" stroke="black" d="M108.053,-151.5C108.053,-151.5 403.323,-151.5 403.323,-151.5 409.323,-151.5 415.323,-157.5 415.323,-163.5 415.323,-163.5 415.323,-365.5 415.323,-365.5 415.323,-371.5 409.323,-377.5 403.323,-377.5 403.323,-377.5 108.053,-377.5 108.053,-377.5 102.053,-377.5 96.053,-371.5 96.053,-365.5 96.053,-365.5 96.053,-163.5 96.053,-163.5 96.053,-157.5 102.053,-151.5 108.053,-151.5"/>
<text text-anchor="middle" x="255.688" y="-362.3" font-family="Times,serif" font-size="14.00">User</text>
<polyline fill="none" stroke="black" points="96.053,-355.5 415.323,-355.5 "/>
<text text-anchor="start" x="104.053" y="-340.3" font-family="Times,serif" font-size="14.00">name :character varying</text>
<text text-anchor="start" x="104.053" y="-326.3" font-family="Times,serif" font-size="14.00">email :character varying</text>
<text text-anchor="start" x="104.053" y="-312.3" font-family="Times,serif" font-size="14.00">encrypted_password :character varying</text>
<text text-anchor="start" x="104.053" y="-298.3" font-family="Times,serif" font-size="14.00">reset_password_token :character varying</text>
<text text-anchor="start" x="104.053" y="-284.3" font-family="Times,serif" font-size="14.00">reset_password_sent_at :timestamp without time zone</text>
<text text-anchor="start" x="104.053" y="-270.3" font-family="Times,serif" font-size="14.00">remember_created_at :timestamp without time zone</text>
<text text-anchor="start" x="104.053" y="-256.3" font-family="Times,serif" font-size="14.00">sign_in_count :integer</text>
<text text-anchor="start" x="104.053" y="-242.3" font-family="Times,serif" font-size="14.00">current_sign_in_at :timestamp without time zone</text>
<text text-anchor="start" x="104.053" y="-228.3" font-family="Times,serif" font-size="14.00">last_sign_in_at :timestamp without time zone</text>
<text text-anchor="start" x="104.053" y="-214.3" font-family="Times,serif" font-size="14.00">current_sign_in_ip :inet</text>
<text text-anchor="start" x="104.053" y="-200.3" font-family="Times,serif" font-size="14.00">last_sign_in_ip :inet</text>
<text text-anchor="start" x="104.053" y="-186.3" font-family="Times,serif" font-size="14.00">created_at :timestamp without time zone</text>
<text text-anchor="start" x="104.053" y="-172.3" font-family="Times,serif" font-size="14.00">updated_at :timestamp without time zone</text>
<text text-anchor="start" x="104.053" y="-158.3" font-family="Times,serif" font-size="14.00">id :integer</text>
</g>
<!-- Song&#45;&gt;User -->
<g id="edge3" class="edge"><title>Song&#45;&gt;User</title>
<path fill="none" stroke="#f115a0" d="M319.711,-405.125C317.003,-399.219 314.207,-393.123 311.368,-386.931"/>
<polygon fill="#f115a0" stroke="#f115a0" points="319.834,-405.393 319.911,-416.359 321.918,-409.938 324.002,-414.483 324.002,-414.483 324.002,-414.483 321.918,-409.938 328.092,-412.607 319.834,-405.393 319.834,-405.393"/>
<polygon fill="#f115a0" stroke="#f115a0" points="311.351,-386.892 311.273,-375.927 309.267,-382.347 307.183,-377.802 307.183,-377.802 307.183,-377.802 309.267,-382.347 303.092,-379.678 311.351,-386.892 311.351,-386.892"/>
</g>
<!-- UserSong -->
<g id="node5" class="node"><title>UserSong</title>
<path fill="none" stroke="black" d="M237.825,-0.5C237.825,-0.5 461.55,-0.5 461.55,-0.5 467.55,-0.5 473.55,-6.5 473.55,-12.5 473.55,-12.5 473.55,-102.5 473.55,-102.5 473.55,-108.5 467.55,-114.5 461.55,-114.5 461.55,-114.5 237.825,-114.5 237.825,-114.5 231.825,-114.5 225.825,-108.5 225.825,-102.5 225.825,-102.5 225.825,-12.5 225.825,-12.5 225.825,-6.5 231.825,-0.5 237.825,-0.5"/>
<text text-anchor="middle" x="349.688" y="-99.3" font-family="Times,serif" font-size="14.00">UserSong</text>
<polyline fill="none" stroke="black" points="225.825,-92.5 473.55,-92.5 "/>
<text text-anchor="start" x="233.825" y="-77.3" font-family="Times,serif" font-size="14.00">id :integer</text>
<text text-anchor="start" x="233.825" y="-63.3" font-family="Times,serif" font-size="14.00">position :integer</text>
<text text-anchor="start" x="233.825" y="-49.3" font-family="Times,serif" font-size="14.00">user_id :integer</text>
<text text-anchor="start" x="233.825" y="-35.3" font-family="Times,serif" font-size="14.00">song_id :integer</text>
<text text-anchor="start" x="233.825" y="-21.3" font-family="Times,serif" font-size="14.00">created_at :timestamp without time zone</text>
<text text-anchor="start" x="233.825" y="-7.3" font-family="Times,serif" font-size="14.00">updated_at :timestamp without time zone</text>
</g>
<!-- Song&#45;&gt;UserSong -->
<g id="edge2" class="edge"><title>Song&#45;&gt;UserSong</title>
<path fill="none" stroke="#f7fceb" d="M409.572,-407.579C415.726,-398.233 421.047,-388.271 424.688,-378 458.395,-282.908 458.395,-246.092 424.688,-151 421.259,-141.328 416.341,-131.928 410.639,-123.06"/>
<ellipse fill="none" stroke="#f7fceb" cx="407.226" cy="-410.979" rx="4.00002" ry="4.00002"/>
<polygon fill="#f7fceb" stroke="#f7fceb" points="410.591,-122.99 408.672,-112.193 407.773,-118.859 404.955,-114.729 404.955,-114.729 404.955,-114.729 407.773,-118.859 401.238,-117.265 410.591,-122.99 410.591,-122.99"/>
</g>
<!-- User&#45;&gt;UserSong -->
<g id="edge4" class="edge"><title>User&#45;&gt;UserSong</title>
<path fill="none" stroke="#d61cc2" d="M310.491,-143.983C313.616,-137.168 316.693,-130.457 319.666,-123.973"/>
<ellipse fill="none" stroke="#d61cc2" cx="308.756" cy="-147.767" rx="4.00002" ry="4.00002"/>
<polygon fill="#d61cc2" stroke="#d61cc2" points="319.772,-123.743 328.03,-116.528 321.856,-119.198 323.94,-114.653 323.94,-114.653 323.94,-114.653 321.856,-119.198 319.849,-112.777 319.772,-123.743 319.772,-123.743"/>
</g>
</g>
</svg>
