<?xml version="1.0" encoding="UTF-8" standalone="no"?>
<!DOCTYPE svg PUBLIC "-//W3C//DTD SVG 1.1//EN"
 "http://www.w3.org/Graphics/SVG/1.1/DTD/svg11.dtd">
<!-- Generated by graphviz version 2.38.0 (20140413.2041)
 -->
<!-- Title: models_diagram Pages: 1 -->
<svg width="369pt" height="153pt"
 viewBox="0.00 0.00 368.69 153.00" xmlns="http://www.w3.org/2000/svg" xmlns:xlink="http://www.w3.org/1999/xlink">
<g id="graph0" class="graph" transform="scale(1 1) rotate(0) translate(4 149)">
<title>models_diagram</title>
<polygon fill="none" stroke="none" points="-4,4 -4,-149 364.688,-149 364.688,4 -4,4"/>
<!-- _diagram_info -->
<g id="node1" class="node"><title>_diagram_info</title>
<text text-anchor="start" x="8" y="-130.6" font-family="Times,serif" font-size="13.00">Models diagram</text>
<text text-anchor="start" x="8" y="-117.6" font-family="Times,serif" font-size="13.00">Date: Aug 01 2016 &#45; 19:59</text>
<text text-anchor="start" x="8" y="-104.6" font-family="Times,serif" font-size="13.00">Migration version: 20160801235750</text>
<text text-anchor="start" x="8" y="-91.6" font-family="Times,serif" font-size="13.00">Generated by RailRoady 1.5.1</text>
<text text-anchor="start" x="8" y="-78.6" font-family="Times,serif" font-size="13.00">http://railroady.prestonlee.com</text>
</g>
<!-- Genre -->
<g id="node2" class="node"><title>Genre</title>
<ellipse fill="none" stroke="black" cx="256.688" cy="-108.5" rx="31.9219" ry="18"/>
<text text-anchor="middle" x="256.688" y="-104.3" font-family="Times,serif" font-size="14.00">Genre</text>
</g>
<!-- Song -->
<g id="node3" class="node"><title>Song</title>
<ellipse fill="none" stroke="black" cx="256.688" cy="-18" rx="28.0822" ry="18"/>
<text text-anchor="middle" x="256.688" y="-13.8" font-family="Times,serif" font-size="14.00">Song</text>
</g>
<!-- Genre&#45;&gt;Song -->
<g id="edge1" class="edge"><title>Genre&#45;&gt;Song</title>
<path fill="none" stroke="#a73f8c" d="M256.688,-82.189C256.688,-70.9711 256.688,-57.7517 256.688,-46.3113"/>
<ellipse fill="none" stroke="#a73f8c" cx="256.688" cy="-86.4363" rx="4" ry="4"/>
<polygon fill="#a73f8c" stroke="#a73f8c" points="256.688,-46.0113 261.188,-36.0113 256.688,-41.0113 256.688,-36.0113 256.688,-36.0113 256.688,-36.0113 256.688,-41.0113 252.188,-36.0113 256.688,-46.0113 256.688,-46.0113"/>
</g>
<!-- User -->
<g id="node4" class="node"><title>User</title>
<ellipse fill="none" stroke="black" cx="333.688" cy="-108.5" rx="27" ry="18"/>
<text text-anchor="middle" x="333.688" y="-104.3" font-family="Times,serif" font-size="14.00">User</text>
</g>
</g>
</svg>
