<?xml version="1.0" encoding="UTF-8" standalone="no"?>
<!DOCTYPE svg PUBLIC "-//W3C//DTD SVG 1.1//EN"
 "http://www.w3.org/Graphics/SVG/1.1/DTD/svg11.dtd">
<!-- Generated by graphviz version 2.38.0 (20140413.2041)
 -->
<!-- Title: models_diagram Pages: 1 -->
<svg width="310pt" height="297pt"
 viewBox="0.00 0.00 309.68 297.00" xmlns="http://www.w3.org/2000/svg" xmlns:xlink="http://www.w3.org/1999/xlink">
<g id="graph0" class="graph" transform="scale(1 1) rotate(0) translate(4 293)">
<title>models_diagram</title>
<polygon fill="none" stroke="none" points="-4,4 -4,-293 305.676,-293 305.676,4 -4,4"/>
<!-- _diagram_info -->
<g id="node1" class="node"><title>_diagram_info</title>
<text text-anchor="start" x="8" y="-274.6" font-family="Times,serif" font-size="13.00">Models diagram</text>
<text text-anchor="start" x="8" y="-261.6" font-family="Times,serif" font-size="13.00">Date: Aug 01 2016 &#45; 20:13</text>
<text text-anchor="start" x="8" y="-248.6" font-family="Times,serif" font-size="13.00">Migration version: 20160802001028</text>
<text text-anchor="start" x="8" y="-235.6" font-family="Times,serif" font-size="13.00">Generated by RailRoady 1.5.1</text>
<text text-anchor="start" x="8" y="-222.6" font-family="Times,serif" font-size="13.00">http://railroady.prestonlee.com</text>
</g>
<!-- Genre -->
<g id="node2" class="node"><title>Genre</title>
<ellipse fill="none" stroke="black" cx="256.688" cy="-252.5" rx="31.9219" ry="18"/>
<text text-anchor="middle" x="256.688" y="-248.3" font-family="Times,serif" font-size="14.00">Genre</text>
</g>
<!-- Song -->
<g id="node3" class="node"><title>Song</title>
<ellipse fill="none" stroke="black" cx="256.688" cy="-162" rx="28.0822" ry="18"/>
<text text-anchor="middle" x="256.688" y="-157.8" font-family="Times,serif" font-size="14.00">Song</text>
</g>
<!-- Genre&#45;&gt;Song -->
<g id="edge1" class="edge"><title>Genre&#45;&gt;Song</title>
<path fill="none" stroke="#4f11c2" d="M256.688,-226.189C256.688,-214.971 256.688,-201.752 256.688,-190.311"/>
<ellipse fill="none" stroke="#4f11c2" cx="256.688" cy="-230.436" rx="4" ry="4"/>
<polygon fill="#4f11c2" stroke="#4f11c2" points="256.688,-190.011 261.188,-180.011 256.688,-185.011 256.688,-180.011 256.688,-180.011 256.688,-180.011 256.688,-185.011 252.188,-180.011 256.688,-190.011 256.688,-190.011"/>
</g>
<!-- User -->
<g id="node4" class="node"><title>User</title>
<ellipse fill="none" stroke="black" cx="229.688" cy="-90" rx="27" ry="18"/>
<text text-anchor="middle" x="229.688" y="-85.8" font-family="Times,serif" font-size="14.00">User</text>
</g>
<!-- Song&#45;&gt;User -->
<g id="edge3" class="edge"><title>Song&#45;&gt;User</title>
<path fill="none" stroke="#695438" d="M246.681,-135.056C244.444,-129.258 242.071,-123.104 239.829,-117.291"/>
<polygon fill="#695438" stroke="#695438" points="246.69,-135.081 246.091,-146.03 248.49,-139.746 250.289,-144.411 250.289,-144.411 250.289,-144.411 248.49,-139.746 254.488,-142.792 246.69,-135.081 246.69,-135.081"/>
<polygon fill="#695438" stroke="#695438" points="239.827,-117.286 240.427,-106.337 238.027,-112.621 236.228,-107.956 236.228,-107.956 236.228,-107.956 238.027,-112.621 232.029,-109.576 239.827,-117.286 239.827,-117.286"/>
</g>
<!-- UserSong -->
<g id="node5" class="node"><title>UserSong</title>
<ellipse fill="none" stroke="black" cx="256.688" cy="-18" rx="44.9768" ry="18"/>
<text text-anchor="middle" x="256.688" y="-13.8" font-family="Times,serif" font-size="14.00">UserSong</text>
</g>
<!-- Song&#45;&gt;UserSong -->
<g id="edge2" class="edge"><title>Song&#45;&gt;UserSong</title>
<path fill="none" stroke="#48761f" d="M261.838,-135.907C263.405,-127.121 264.915,-117.162 265.688,-108 267.032,-92.0566 267.032,-87.9434 265.688,-72 264.971,-63.4991 263.619,-54.3119 262.176,-46.0122"/>
<ellipse fill="none" stroke="#48761f" cx="261.077" cy="-139.976" rx="4.00001" ry="4.00001"/>
<polygon fill="#48761f" stroke="#48761f" points="262.16,-45.9257 264.767,-35.2741 261.251,-41.0091 260.342,-36.0925 260.342,-36.0925 260.342,-36.0925 261.251,-41.0091 255.917,-36.9109 262.16,-45.9257 262.16,-45.9257"/>
</g>
<!-- User&#45;&gt;UserSong -->
<g id="edge4" class="edge"><title>User&#45;&gt;UserSong</title>
<path fill="none" stroke="#8fa692" d="M239.031,-64.7779C241.435,-58.544 244.035,-51.8046 246.48,-45.4634"/>
<ellipse fill="none" stroke="#8fa692" cx="237.526" cy="-68.679" rx="4.00001" ry="4.00001"/>
<polygon fill="#8fa692" stroke="#8fa692" points="246.549,-45.2862 254.346,-37.5757 248.348,-40.6212 250.147,-35.9562 250.147,-35.9562 250.147,-35.9562 248.348,-40.6212 245.949,-34.3368 246.549,-45.2862 246.549,-45.2862"/>
</g>
</g>
</svg>
