<?xml version="1.0" encoding="UTF-8" standalone="no"?>
<!DOCTYPE svg PUBLIC "-//W3C//DTD SVG 1.1//EN"
 "http://www.w3.org/Graphics/SVG/1.1/DTD/svg11.dtd">
<!-- Generated by graphviz version 2.38.0 (20140413.2041)
 -->
<!-- Title: models_diagram Pages: 1 -->
<svg width="818pt" height="386pt"
 viewBox="0.00 0.00 818.32 386.00" xmlns="http://www.w3.org/2000/svg" xmlns:xlink="http://www.w3.org/1999/xlink">
<g id="graph0" class="graph" transform="scale(1 1) rotate(0) translate(4 382)">
<title>models_diagram</title>
<polygon fill="none" stroke="none" points="-4,4 -4,-382 814.323,-382 814.323,4 -4,4"/>
<!-- _diagram_info -->
<g id="node1" class="node"><title>_diagram_info</title>
<text text-anchor="start" x="8" y="-286.6" font-family="Times,serif" font-size="13.00">Models diagram</text>
<text text-anchor="start" x="8" y="-273.6" font-family="Times,serif" font-size="13.00">Date: Aug 01 2016 &#45; 19:59</text>
<text text-anchor="start" x="8" y="-260.6" font-family="Times,serif" font-size="13.00">Migration version: 20160801235750</text>
<text text-anchor="start" x="8" y="-247.6" font-family="Times,serif" font-size="13.00">Generated by RailRoady 1.5.1</text>
<text text-anchor="start" x="8" y="-234.6" font-family="Times,serif" font-size="13.00">http://railroady.prestonlee.com</text>
</g>
<!-- Genre -->
<g id="node2" class="node"><title>Genre</title>
<path fill="none" stroke="black" d="M237.825,-221.5C237.825,-221.5 461.55,-221.5 461.55,-221.5 467.55,-221.5 473.55,-227.5 473.55,-233.5 473.55,-233.5 473.55,-295.5 473.55,-295.5 473.55,-301.5 467.55,-307.5 461.55,-307.5 461.55,-307.5 237.825,-307.5 237.825,-307.5 231.825,-307.5 225.825,-301.5 225.825,-295.5 225.825,-295.5 225.825,-233.5 225.825,-233.5 225.825,-227.5 231.825,-221.5 237.825,-221.5"/>
<text text-anchor="middle" x="349.688" y="-292.3" font-family="Times,serif" font-size="14.00">Genre</text>
<polyline fill="none" stroke="black" points="225.825,-285.5 473.55,-285.5 "/>
<text text-anchor="start" x="233.825" y="-270.3" font-family="Times,serif" font-size="14.00">id :integer</text>
<text text-anchor="start" x="233.825" y="-256.3" font-family="Times,serif" font-size="14.00">name :character varying</text>
<text text-anchor="start" x="233.825" y="-242.3" font-family="Times,serif" font-size="14.00">created_at :timestamp without time zone</text>
<text text-anchor="start" x="233.825" y="-228.3" font-family="Times,serif" font-size="14.00">updated_at :timestamp without time zone</text>
</g>
<!-- Song -->
<g id="node3" class="node"><title>Song</title>
<path fill="none" stroke="black" d="M237.825,-0.5C237.825,-0.5 461.55,-0.5 461.55,-0.5 467.55,-0.5 473.55,-6.5 473.55,-12.5 473.55,-12.5 473.55,-102.5 473.55,-102.5 473.55,-108.5 467.55,-114.5 461.55,-114.5 461.55,-114.5 237.825,-114.5 237.825,-114.5 231.825,-114.5 225.825,-108.5 225.825,-102.5 225.825,-102.5 225.825,-12.5 225.825,-12.5 225.825,-6.5 231.825,-0.5 237.825,-0.5"/>
<text text-anchor="middle" x="349.688" y="-99.3" font-family="Times,serif" font-size="14.00">Song</text>
<polyline fill="none" stroke="black" points="225.825,-92.5 473.55,-92.5 "/>
<text text-anchor="start" x="233.825" y="-77.3" font-family="Times,serif" font-size="14.00">id :integer</text>
<text text-anchor="start" x="233.825" y="-63.3" font-family="Times,serif" font-size="14.00">name :character varying</text>
<text text-anchor="start" x="233.825" y="-49.3" font-family="Times,serif" font-size="14.00">duration :integer</text>
<text text-anchor="start" x="233.825" y="-35.3" font-family="Times,serif" font-size="14.00">created_at :timestamp without time zone</text>
<text text-anchor="start" x="233.825" y="-21.3" font-family="Times,serif" font-size="14.00">updated_at :timestamp without time zone</text>
<text text-anchor="start" x="233.825" y="-7.3" font-family="Times,serif" font-size="14.00">genre_id :integer</text>
</g>
<!-- Genre&#45;&gt;Song -->
<g id="edge1" class="edge"><title>Genre&#45;&gt;Song</title>
<path fill="none" stroke="#f61b32" d="M349.688,-212.836C349.688,-186.278 349.688,-153.419 349.688,-124.854"/>
<ellipse fill="none" stroke="#f61b32" cx="349.688" cy="-217.024" rx="4" ry="4"/>
<polygon fill="#f61b32" stroke="#f61b32" points="349.688,-124.545 354.188,-114.545 349.688,-119.545 349.688,-114.545 349.688,-114.545 349.688,-114.545 349.688,-119.545 345.188,-114.545 349.688,-124.545 349.688,-124.545"/>
</g>
<!-- User -->
<g id="node4" class="node"><title>User</title>
<path fill="none" stroke="black" d="M503.053,-151.5C503.053,-151.5 798.323,-151.5 798.323,-151.5 804.323,-151.5 810.323,-157.5 810.323,-163.5 810.323,-163.5 810.323,-365.5 810.323,-365.5 810.323,-371.5 804.323,-377.5 798.323,-377.5 798.323,-377.5 503.053,-377.5 503.053,-377.5 497.053,-377.5 491.053,-371.5 491.053,-365.5 491.053,-365.5 491.053,-163.5 491.053,-163.5 491.053,-157.5 497.053,-151.5 503.053,-151.5"/>
<text text-anchor="middle" x="650.688" y="-362.3" font-family="Times,serif" font-size="14.00">User</text>
<polyline fill="none" stroke="black" points="491.053,-355.5 810.323,-355.5 "/>
<text text-anchor="start" x="499.053" y="-340.3" font-family="Times,serif" font-size="14.00">name :character varying</text>
<text text-anchor="start" x="499.053" y="-326.3" font-family="Times,serif" font-size="14.00">email :character varying</text>
<text text-anchor="start" x="499.053" y="-312.3" font-family="Times,serif" font-size="14.00">encrypted_password :character varying</text>
<text text-anchor="start" x="499.053" y="-298.3" font-family="Times,serif" font-size="14.00">reset_password_token :character varying</text>
<text text-anchor="start" x="499.053" y="-284.3" font-family="Times,serif" font-size="14.00">reset_password_sent_at :timestamp without time zone</text>
<text text-anchor="start" x="499.053" y="-270.3" font-family="Times,serif" font-size="14.00">remember_created_at :timestamp without time zone</text>
<text text-anchor="start" x="499.053" y="-256.3" font-family="Times,serif" font-size="14.00">sign_in_count :integer</text>
<text text-anchor="start" x="499.053" y="-242.3" font-family="Times,serif" font-size="14.00">current_sign_in_at :timestamp without time zone</text>
<text text-anchor="start" x="499.053" y="-228.3" font-family="Times,serif" font-size="14.00">last_sign_in_at :timestamp without time zone</text>
<text text-anchor="start" x="499.053" y="-214.3" font-family="Times,serif" font-size="14.00">current_sign_in_ip :inet</text>
<text text-anchor="start" x="499.053" y="-200.3" font-family="Times,serif" font-size="14.00">last_sign_in_ip :inet</text>
<text text-anchor="start" x="499.053" y="-186.3" font-family="Times,serif" font-size="14.00">created_at :timestamp without time zone</text>
<text text-anchor="start" x="499.053" y="-172.3" font-family="Times,serif" font-size="14.00">updated_at :timestamp without time zone</text>
<text text-anchor="start" x="499.053" y="-158.3" font-family="Times,serif" font-size="14.00">id :integer</text>
</g>
</g>
</svg>
